<?xml version="1.0" encoding="utf-8"?>
<!-- Generator: Adobe Illustrator 26.2.1, SVG Export Plug-In . SVG Version: 6.00 Build 0)  -->
<svg version="1.1" id="圖層_1" xmlns="http://www.w3.org/2000/svg" xmlns:xlink="http://www.w3.org/1999/xlink" x="0px" y="0px"
	 viewBox="0 0 100 100" style="enable-background:new 0 0 100 100;" xml:space="preserve">
<style type="text/css">
	.st0{fill-rule:evenodd;clip-rule:evenodd;fill:#FFFFFF;}
	.st1{fill:#FFFFFF;}
</style>
<g>
	<g>
		<g>
			<path class="st0" d="M69.49,29.44h11.61c0,0-24.99-40.95-63.03-9.67C18.06,19.77,50.49-1,69.49,29.44z"/>
			<path class="st0" d="M12.22,28.8h10.63c0,0,17.24-19.5,40.2-3.54C63.05,25.25,41.46,0.36,12.22,28.8z"/>
		</g>
		<g>
			<path class="st0" d="M69.49,64.91h11.61c0,0-24.99,40.95-63.03,9.67C18.06,74.58,50.49,95.35,69.49,64.91z"/>
			<path class="st0" d="M12.22,65.55h10.63c0,0,17.24,19.5,40.2,3.54C63.05,69.1,41.46,93.99,12.22,65.55z"/>
		</g>
	</g>
	<g>
		<path class="st1" d="M34.85,32.25h1.68v24.36c0,2.75-2.23,4.97-4.97,4.97h-1.68V37.23C29.88,34.48,32.11,32.25,34.85,32.25z"/>
		<path class="st1" d="M44.68,32.25h19.84v4.21h-8.26v20.15c0,2.75-2.23,4.97-4.97,4.97h-1.73V36.46h-8.19v-0.9
			C41.37,33.74,42.85,32.25,44.68,32.25z"/>
		<path class="st1" d="M87.81,57.52H76.08v-8.96h11.69v-4.05H76.08V36.3h11.72v-4.05H74.4c-2.75,0-4.97,2.23-4.97,4.97v24.36h15.06
			c1.83,0,3.32-1.48,3.32-3.32V57.52z"/>
	</g>
</g>
</svg>
